PathFileType	4	(X/Y/Z)	C:\Users\italobelli\Desktop\GitHub\PTbot_officialCBL\Personal_Results\SHRUG02_noisy1.trc
DataRate	CameraRate	NumFrames	NumMarkers	Units	OrigDataRate	OrigDataStartFrame	OrigNumFrames
112.250000	112.250000	29	9	m	112.250000	226	450
Frame#	Time		gu		centelbow		EpL		centpxt8		centijc7		ij		ts		aa		ai
			X1	Y1	Z1	X2	Y2	Z2	X3	Y3	Z3	X4	Y4	Z4	X5	Y5	Z5	X6	Y6	Z6	X7	Y7	Z7	X8	Y8	Z8	X9	Y9	Z9

226	2.0045	-0.065857	0.048243	0.15991	-0.089641	-0.18532	0.23762	-0.066487	-0.17724	0.25855	-0.046816	-0.15316	-0.008669	-0.046816	0.031938	-0.008669	0	0	0	-0.12938	0.057007	0.043352	-0.091532	0.087762	0.15216	-0.14705	-0.047214	0.08468
227	2.0134	-0.065984	0.047641	0.15998	-0.089716	-0.18601	0.23741	-0.066539	-0.17796	0.25836	-0.046816	-0.15316	-0.008669	-0.046816	0.031938	-0.008669	0	0	0	-0.1294	0.05685	0.043483	-0.091614	0.087216	0.15236	-0.14715	-0.047452	0.084475
228	2.0223	-0.066123	0.046965	0.16005	-0.089796	-0.18678	0.23716	-0.066597	-0.17878	0.25813	-0.046816	-0.15316	-0.008669	-0.046816	0.031938	-0.008669	0	0	0	-0.12943	0.056649	0.043627	-0.091717	0.08659	0.15258	-0.14727	-0.047741	0.084251
229	2.0312	-0.066275	0.04622	0.16012	-0.089879	-0.18765	0.23689	-0.066658	-0.17969	0.25787	-0.046816	-0.15316	-0.008669	-0.046816	0.031938	-0.008669	0	0	0	-0.12948	0.056407	0.043783	-0.091838	0.085889	0.15281	-0.14741	-0.048078	0.084007
230	2.0401	-0.066438	0.045408	0.16019	-0.089967	-0.1886	0.2366	-0.066724	-0.18069	0.25758	-0.046816	-0.15316	-0.008669	-0.046816	0.031938	-0.008669	0	0	0	-0.12955	0.056125	0.043951	-0.091978	0.085115	0.15307	-0.14756	-0.048462	0.083745
231	2.049	-0.066612	0.044532	0.16026	-0.090058	-0.18963	0.23627	-0.066794	-0.18177	0.25727	-0.046816	-0.15316	-0.008669	-0.046816	0.031938	-0.008669	0	0	0	-0.12963	0.055805	0.044131	-0.092135	0.084271	0.15334	-0.14774	-0.048889	0.083465
232	2.0579	-0.066797	0.043596	0.16033	-0.090153	-0.19075	0.23592	-0.066868	-0.18293	0.25693	-0.046816	-0.15316	-0.008669	-0.046816	0.031938	-0.008669	0	0	0	-0.12972	0.055449	0.044321	-0.09231	0.083362	0.15362	-0.14793	-0.049359	0.083168
233	2.0668	-0.066993	0.042602	0.16041	-0.090252	-0.19193	0.23555	-0.066946	-0.18418	0.25656	-0.046816	-0.15316	-0.008669	-0.046816	0.031938	-0.008669	0	0	0	-0.12983	0.055058	0.044522	-0.0925	0.08239	0.15393	-0.14813	-0.04987	0.082855
234	2.0757	-0.067197	0.041553	0.16049	-0.090355	-0.19319	0.23515	-0.067029	-0.18549	0.25617	-0.046816	-0.15316	-0.008669	-0.046816	0.031938	-0.008669	0	0	0	-0.12995	0.054634	0.044732	-0.092705	0.081359	0.15424	-0.14835	-0.050418	0.082526
235	2.0846	-0.067412	0.040454	0.16057	-0.090461	-0.19452	0.23474	-0.067115	-0.18688	0.25576	-0.046816	-0.15316	-0.008669	-0.046816	0.031938	-0.008669	0	0	0	-0.13008	0.054179	0.044951	-0.092925	0.080271	0.15457	-0.14858	-0.051003	0.082183
236	2.0935	-0.067634	0.039305	0.16065	-0.090571	-0.19591	0.2343	-0.067204	-0.18833	0.25532	-0.046816	-0.15316	-0.008669	-0.046816	0.031938	-0.008669	0	0	0	-0.13023	0.053694	0.045179	-0.093159	0.079131	0.15492	-0.14883	-0.051621	0.081827
237	2.1024	-0.067865	0.038112	0.16073	-0.090684	-0.19736	0.23384	-0.067298	-0.18985	0.25486	-0.046816	-0.15316	-0.008669	-0.046816	0.031938	-0.008669	0	0	0	-0.13039	0.053181	0.045416	-0.093406	0.07794	0.15527	-0.14909	-0.052272	0.081457
238	2.1114	-0.068104	0.036877	0.16081	-0.090799	-0.19886	0.23336	-0.067395	-0.19142	0.25439	-0.046816	-0.15316	-0.008669	-0.046816	0.031938	-0.008669	0	0	0	-0.13056	0.052642	0.045659	-0.093665	0.076704	0.15564	-0.14936	-0.052953	0.081076
239	2.1203	-0.06835	0.035602	0.16089	-0.090919	-0.20042	0.23286	-0.067496	-0.19304	0.25389	-0.046816	-0.15316	-0.008669	-0.046816	0.031938	-0.008669	0	0	0	-0.13073	0.052079	0.04591	-0.093936	0.075424	0.15601	-0.14964	-0.053662	0.080683
240	2.1292	-0.068603	0.034292	0.16098	-0.091041	-0.20202	0.23235	-0.0676	-0.19472	0.25338	-0.046816	-0.15316	-0.008669	-0.046816	0.031938	-0.008669	0	0	0	-0.13092	0.051493	0.046167	-0.094217	0.074104	0.1564	-0.14994	-0.054398	0.080279
241	2.1381	-0.068863	0.032949	0.16106	-0.091165	-0.20367	0.23182	-0.067707	-0.19644	0.25285	-0.046816	-0.15316	-0.008669	-0.046816	0.031938	-0.008669	0	0	0	-0.13112	0.050886	0.04643	-0.094509	0.072747	0.15679	-0.15024	-0.055157	0.079866
242	2.147	-0.069128	0.031576	0.16115	-0.091293	-0.20536	0.23128	-0.067818	-0.1982	0.25231	-0.046816	-0.15316	-0.008669	-0.046816	0.031938	-0.008669	0	0	0	-0.13132	0.05026	0.046699	-0.09481	0.071358	0.15719	-0.15055	-0.055938	0.079444
243	2.1559	-0.069398	0.030176	0.16123	-0.091423	-0.20709	0.23072	-0.067931	-0.2	0.25176	-0.046816	-0.15316	-0.008669	-0.046816	0.031938	-0.008669	0	0	0	-0.13153	0.049616	0.046972	-0.095119	0.069938	0.1576	-0.15087	-0.056739	0.079014
244	2.1648	-0.069673	0.028753	0.16132	-0.091556	-0.20885	0.23016	-0.068048	-0.20183	0.25119	-0.046816	-0.15316	-0.008669	-0.046816	0.031938	-0.008669	0	0	0	-0.13175	0.048956	0.04725	-0.095437	0.068491	0.15802	-0.15119	-0.057559	0.078576
245	2.1737	-0.069953	0.02731	0.1614	-0.091691	-0.21064	0.22958	-0.068168	-0.2037	0.25061	-0.046816	-0.15316	-0.008669	-0.046816	0.031938	-0.008669	0	0	0	-0.13198	0.048282	0.047531	-0.095761	0.06702	0.15844	-0.15153	-0.058394	0.078132
246	2.1826	-0.070237	0.025849	0.16149	-0.091829	-0.21245	0.22899	-0.068291	-0.20559	0.25002	-0.046816	-0.15316	-0.008669	-0.046816	0.031938	-0.008669	0	0	0	-0.13221	0.047596	0.047816	-0.096092	0.065529	0.15886	-0.15186	-0.059243	0.077682
247	2.1915	-0.070524	0.024373	0.16158	-0.091968	-0.21429	0.22839	-0.068417	-0.2075	0.24942	-0.046816	-0.15316	-0.008669	-0.046816	0.031938	-0.008669	0	0	0	-0.13244	0.046898	0.048103	-0.096428	0.064021	0.15929	-0.15221	-0.060104	0.077228
248	2.2004	-0.070813	0.022887	0.16166	-0.09211	-0.21614	0.22779	-0.068545	-0.20943	0.24882	-0.046816	-0.15316	-0.008669	-0.046816	0.031938	-0.008669	0	0	0	-0.13268	0.046192	0.048393	-0.096769	0.062499	0.15972	-0.15255	-0.060975	0.076769
249	2.2094	-0.071106	0.021392	0.16175	-0.092254	-0.21801	0.22718	-0.068676	-0.21138	0.2482	-0.046816	-0.15316	-0.008669	-0.046816	0.031938	-0.008669	0	0	0	-0.13293	0.045478	0.048684	-0.097114	0.060967	0.16015	-0.1529	-0.061854	0.076307
250	2.2183	-0.0714	0.019892	0.16184	-0.0924	-0.21989	0.22656	-0.06881	-0.21333	0.24759	-0.046816	-0.15316	-0.008669	-0.046816	0.031938	-0.008669	0	0	0	-0.13317	0.044758	0.048976	-0.097462	0.059427	0.16059	-0.15326	-0.062739	0.075843
251	2.2272	-0.071696	0.01839	0.16192	-0.092547	-0.22177	0.22594	-0.068946	-0.21529	0.24697	-0.046816	-0.15316	-0.008669	-0.046816	0.031938	-0.008669	0	0	0	-0.13342	0.044034	0.049269	-0.097813	0.057883	0.16102	-0.15361	-0.063627	0.075377
252	2.2361	-0.071993	0.01689	0.16201	-0.092696	-0.22366	0.22532	-0.069084	-0.21726	0.24634	-0.046816	-0.15316	-0.008669	-0.046816	0.031938	-0.008669	0	0	0	-0.13367	0.043308	0.049562	-0.098166	0.056339	0.16146	-0.15396	-0.064517	0.07491
253	2.245	-0.07229	0.015393	0.16209	-0.092847	-0.22555	0.2247	-0.069225	-0.21922	0.24572	-0.046816	-0.15316	-0.008669	-0.046816	0.031938	-0.008669	0	0	0	-0.13392	0.042582	0.049854	-0.09852	0.054797	0.16189	-0.15432	-0.065407	0.074443
254	2.2539	-0.072588	0.013904	0.16218	-0.092999	-0.22743	0.22407	-0.069368	-0.22118	0.24509	-0.046816	-0.15316	-0.008669	-0.046816	0.031938	-0.008669	0	0	0	-0.13418	0.041856	0.050145	-0.098874	0.05326	0.16232	-0.15467	-0.066295	0.073976
